<?xml version="1.0" encoding="utf-8"?>
<!-- Generator: Adobe Illustrator 18.1.0, SVG Export Plug-In . SVG Version: 6.00 Build 0)  -->
<svg version="1.1" id="github" xmlns="http://www.w3.org/2000/svg" xmlns:xlink="http://www.w3.org/1999/xlink" x="0px" y="0px"
	 viewBox="0 0 1200 1200" enable-background="new 0 0 1200 1200" xml:space="preserve">
<circle fill="#2ECC66" cx="600" cy="600" r="576"/>
<path fill="#F7F7F7" d="M600,306c-162.4,0-294,131.6-294,294s131.6,294,294,294s294-131.6,294-294S762.4,306,600,306z M774.6,774.6
	c-22.7,22.7-49.1,40.5-78.5,52.9c-7.5,3.2-15.1,5.9-22.7,8.3v-44.1c0-23.2-7.9-40.2-23.8-51.1c10-1,19.1-2.3,27.4-4
	s17.1-4.2,26.4-7.5s17.6-7.1,25-11.6c7.4-4.5,14.5-10.3,21.2-17.5c6.8-7.2,12.5-15.3,17.1-24.4c4.6-9.1,8.2-20,10.9-32.7
	s4-26.7,4-42.1c0-29.7-9.7-54.9-29-75.8c8.8-23,7.8-47.9-2.9-74.9l-7.2-0.9c-5-0.6-13.9,1.5-26.8,6.3c-12.9,4.8-27.4,12.6-43.5,23.5
	c-22.8-6.3-46.4-9.5-70.9-9.5c-24.7,0-48.2,3.2-70.6,9.5c-10.1-6.9-19.8-12.6-28.9-17.1c-9.1-4.5-16.4-7.6-21.8-9.2
	c-5.5-1.6-10.5-2.6-15.2-3c-4.7-0.4-7.7-0.5-9-0.3s-2.3,0.4-2.9,0.6c-10.7,27.2-11.7,52.2-2.9,74.9c-19.3,20.9-29,46.1-29,75.8
	c0,15.3,1.3,29.3,4,42.1c2.7,12.7,6.3,23.6,10.9,32.7c4.6,9.1,10.3,17.2,17.1,24.4s13.9,13,21.2,17.5c7.4,4.5,15.7,8.4,25,11.6
	c9.3,3.3,18.1,5.7,26.4,7.5c8.3,1.7,17.5,3.1,27.4,4c-15.7,10.7-23.5,27.8-23.5,51.1v44.9c-8.7-2.6-17.2-5.6-25.6-9.2
	c-29.4-12.4-55.8-30.2-78.5-52.9c-22.7-22.7-40.5-49.1-52.9-78.5c-12.9-30.4-19.4-62.7-19.4-96.1s6.5-65.7,19.4-96.1
	c12.4-29.4,30.2-55.8,52.9-78.5s49.1-40.5,78.5-52.9c30.4-12.9,62.7-19.4,96.1-19.4s65.7,6.5,96.1,19.4
	c29.4,12.4,55.8,30.2,78.5,52.9c22.7,22.7,40.5,49.1,52.9,78.5c12.9,30.4,19.4,62.7,19.4,96.1s-6.5,65.7-19.4,96.1
	C815.1,725.5,797.3,751.9,774.6,774.6L774.6,774.6z"/>
</svg>
